<mxfile host="app.diagrams.net" modified="2021-11-15T02:34:00.634Z" agent="5.0 (Windows NT 10.0; Win64; x64) AppleWebKit/537.36 (KHTML, like Gecko) Chrome/95.0.4638.69 Safari/537.36" etag="xlCR6grChqF-Z1lknjNP" version="15.7.3" type="github">
  <diagram name="Page-1" id="e7e014a7-5840-1c2e-5031-d8a46d1fe8dd">
    <mxGraphModel dx="1021" dy="579" grid="1" gridSize="10" guides="1" tooltips="1" connect="1" arrows="1" fold="1" page="1" pageScale="1" pageWidth="1169" pageHeight="826" background="none" math="0" shadow="0">
      <root>
        <mxCell id="0" />
        <mxCell id="1" parent="0" />
        <mxCell id="2" value="SiswaÂ " style="swimlane;whiteSpace=wrap" parent="1" vertex="1">
          <mxGeometry x="164.5" y="128" width="280" height="570" as="geometry" />
        </mxCell>
        <mxCell id="5" value="" style="ellipse;shape=startState;fillColor=#000000;strokeColor=#ff0000;" parent="2" vertex="1">
          <mxGeometry x="100" y="40" width="30" height="30" as="geometry" />
        </mxCell>
        <mxCell id="6" value="" style="edgeStyle=elbowEdgeStyle;elbow=horizontal;verticalAlign=bottom;endArrow=open;endSize=8;strokeColor=#FF0000;endFill=1;rounded=0" parent="2" source="5" edge="1">
          <mxGeometry x="100" y="40" as="geometry">
            <mxPoint x="114.5" y="109.99999999999989" as="targetPoint" />
          </mxGeometry>
        </mxCell>
        <mxCell id="nvvlvehabfdIOjAcSKJm-41" value="Entri Data" style="rounded=1;whiteSpace=wrap;html=1;arcSize=40;fontColor=#000000;fillColor=#ffffc0;strokeColor=#ff0000;" vertex="1" parent="2">
          <mxGeometry x="55.5" y="112" width="120" height="40" as="geometry" />
        </mxCell>
        <mxCell id="nvvlvehabfdIOjAcSKJm-83" style="edgeStyle=orthogonalEdgeStyle;rounded=0;orthogonalLoop=1;jettySize=auto;html=1;exitX=0.5;exitY=1;exitDx=0;exitDy=0;entryX=0.5;entryY=0;entryDx=0;entryDy=0;" edge="1" parent="2" source="nvvlvehabfdIOjAcSKJm-77" target="38">
          <mxGeometry relative="1" as="geometry" />
        </mxCell>
        <mxCell id="nvvlvehabfdIOjAcSKJm-77" value="Menerima rekap absen siswa" style="whiteSpace=wrap;html=1;rounded=1;fontColor=#000000;strokeColor=#ff0000;fillColor=#ffffc0;arcSize=40;" vertex="1" parent="2">
          <mxGeometry x="55" y="285" width="120" height="60" as="geometry" />
        </mxCell>
        <mxCell id="38" value="" style="ellipse;shape=endState;fillColor=#000000;strokeColor=#ff0000" parent="2" vertex="1">
          <mxGeometry x="100" y="452" width="30" height="30" as="geometry" />
        </mxCell>
        <mxCell id="3" value="Admin" style="swimlane;whiteSpace=wrap" parent="1" vertex="1">
          <mxGeometry x="444.5" y="128" width="280" height="570" as="geometry" />
        </mxCell>
        <mxCell id="nvvlvehabfdIOjAcSKJm-70" value="" style="edgeStyle=orthogonalEdgeStyle;rounded=0;orthogonalLoop=1;jettySize=auto;html=1;" edge="1" parent="3" source="nvvlvehabfdIOjAcSKJm-47" target="nvvlvehabfdIOjAcSKJm-69">
          <mxGeometry relative="1" as="geometry" />
        </mxCell>
        <mxCell id="nvvlvehabfdIOjAcSKJm-47" value="Menerima Data Siswa" style="rounded=1;whiteSpace=wrap;html=1;arcSize=40;fontColor=#000000;fillColor=#ffffc0;strokeColor=#ff0000;" vertex="1" parent="3">
          <mxGeometry x="80.5" y="112" width="120" height="40" as="geometry" />
        </mxCell>
        <mxCell id="nvvlvehabfdIOjAcSKJm-69" value="Cek Siswa" style="rounded=1;whiteSpace=wrap;html=1;arcSize=40;fontColor=#000000;fillColor=#ffffc0;strokeColor=#ff0000;" vertex="1" parent="3">
          <mxGeometry x="80" y="172" width="120" height="40" as="geometry" />
        </mxCell>
        <mxCell id="nvvlvehabfdIOjAcSKJm-75" value="Membuat Rekap absen siswa" style="rounded=1;whiteSpace=wrap;html=1;fontColor=#000000;strokeColor=#ff0000;fillColor=#ffffc0;arcSize=40;" vertex="1" parent="3">
          <mxGeometry x="80" y="285" width="120" height="60" as="geometry" />
        </mxCell>
        <mxCell id="4" value="Database" style="swimlane;whiteSpace=wrap" parent="1" vertex="1">
          <mxGeometry x="724.5" y="128" width="280" height="570" as="geometry" />
        </mxCell>
        <mxCell id="nvvlvehabfdIOjAcSKJm-73" value="Menyimpan data siswa" style="rounded=1;whiteSpace=wrap;html=1;arcSize=40;fontColor=#000000;fillColor=#ffffc0;strokeColor=#ff0000;" vertex="1" parent="4">
          <mxGeometry x="95.5" y="172" width="120" height="40" as="geometry" />
        </mxCell>
        <mxCell id="nvvlvehabfdIOjAcSKJm-48" value="" style="edgeStyle=orthogonalEdgeStyle;rounded=0;orthogonalLoop=1;jettySize=auto;html=1;" edge="1" parent="1" source="nvvlvehabfdIOjAcSKJm-41" target="nvvlvehabfdIOjAcSKJm-47">
          <mxGeometry relative="1" as="geometry" />
        </mxCell>
        <mxCell id="nvvlvehabfdIOjAcSKJm-74" value="" style="edgeStyle=orthogonalEdgeStyle;rounded=0;orthogonalLoop=1;jettySize=auto;html=1;" edge="1" parent="1" source="nvvlvehabfdIOjAcSKJm-69" target="nvvlvehabfdIOjAcSKJm-73">
          <mxGeometry relative="1" as="geometry" />
        </mxCell>
        <mxCell id="nvvlvehabfdIOjAcSKJm-76" value="" style="edgeStyle=orthogonalEdgeStyle;rounded=0;orthogonalLoop=1;jettySize=auto;html=1;" edge="1" parent="1" source="nvvlvehabfdIOjAcSKJm-73" target="nvvlvehabfdIOjAcSKJm-75">
          <mxGeometry relative="1" as="geometry">
            <Array as="points">
              <mxPoint x="880" y="443" />
            </Array>
          </mxGeometry>
        </mxCell>
        <mxCell id="nvvlvehabfdIOjAcSKJm-78" value="" style="edgeStyle=orthogonalEdgeStyle;rounded=0;orthogonalLoop=1;jettySize=auto;html=1;" edge="1" parent="1" source="nvvlvehabfdIOjAcSKJm-75" target="nvvlvehabfdIOjAcSKJm-77">
          <mxGeometry relative="1" as="geometry" />
        </mxCell>
      </root>
    </mxGraphModel>
  </diagram>
</mxfile>
